<svg xmlns="http://www.w3.org/2000/svg" xmlns:xlink="http://www.w3.org/1999/xlink" width="298" height="297.999755859375" viewBox="0 0 298 297.999755859375" fill="none">
<path d="M88.4562 89.5914L107.988 102.042C108.325 102.258 108.078 102.777 107.699 102.649L107.699 102.649L85.7791 95.1763C85.6321 95.1257 85.4677 95.1826 85.3854 95.3141L72.9517 114.873C72.7367 115.212 72.2165 114.962 72.3446 114.583L79.8081 92.6333C79.8604 92.486 79.8019 92.3229 79.6707 92.239L60.1387 79.7899C59.8003 79.5729 60.0501 79.0535 60.4296 79.1818L82.3462 86.6557C82.4932 86.7032 82.6576 86.6478 82.7415 86.5164L95.1767 66.9575C95.3902 66.6186 95.9087 66.8688 95.7807 67.2489L88.3186 89.1972C88.2681 89.346 88.325 89.5075 88.4562 89.5914Z"   fill="url(#linear_fill_7aeba143-53b0-4e20-85d4-69dd26ba4dc3)" >
</path>
<path d="M238.958 234.899C238.958 239.49 235.242 243.209 230.659 243.209C226.077 243.209 222.361 239.49 222.361 234.899C222.361 230.309 226.077 226.589 230.659 226.589C235.242 226.589 238.958 230.309 238.958 234.899L238.958 234.899Z"   fill="url(#linear_fill_b26fbf60-82c8-4393-b90a-af3be205023b)" >
</path>
<path d="M250.703 102.24C250.703 105.082 248.403 107.385 245.566 107.385C242.728 107.385 240.427 105.082 240.427 102.24C240.427 99.3978 242.728 97.0955 245.566 97.0955C248.403 97.0955 250.703 99.3978 250.703 102.24L250.703 102.24Z"   fill="#A0F8E6" >
</path>
<path d="M42.43 179.288C42.4141 179.133 42.2909 179.011 42.1358 178.992L19.1519 176.181C18.755 176.132 18.7582 175.554 19.1551 175.508L42.1485 172.796C42.3035 172.778 42.4268 172.657 42.4458 172.5L45.2494 149.486C45.3 149.088 45.8771 149.09 45.9214 149.487L48.6317 172.514C48.6507 172.669 48.7709 172.791 48.9259 172.81L71.9098 175.621C72.3067 175.67 72.305 176.246 71.9082 176.294L48.9132 179.005C48.7567 179.024 48.6349 179.144 48.616 179.299L45.8107 202.316C45.7602 202.714 45.1845 202.714 45.1387 202.315L45.1387 202.315L42.43 179.288Z"   fill="url(#linear_fill_f04b4a5e-29d1-4d1c-8985-6e2c3e018bdc)" >
</path>
<path d="M201.235 46.3715L219.652 44.199C219.777 44.1847 219.873 44.0881 219.889 43.9631L222.138 25.53C222.176 25.2117 222.637 25.2117 222.674 25.5316L224.843 43.9741C224.857 44.0976 224.955 44.1958 225.08 44.2116L243.486 46.4617C243.806 46.4997 243.803 46.9621 243.485 47.0001L225.069 49.171C224.946 49.1869 224.846 49.2851 224.832 49.4086L222.585 67.8432C222.544 68.1615 222.084 68.1599 222.046 67.8416L222.046 67.8416L219.878 49.3975C219.864 49.274 219.764 49.1742 219.641 49.1615L201.233 46.9099C200.915 46.8719 200.917 46.4095 201.235 46.3715Z"   fill="#A0F8E6" >
</path>
<path d="M198.456 79.109C198.456 82.6924 195.553 85.5996 191.975 85.5996C188.395 85.5996 185.493 82.6924 185.493 79.109C185.493 75.524 188.395 72.6184 191.975 72.6184C195.553 72.6184 198.456 75.524 198.456 79.109L198.456 79.109Z"   fill="url(#linear_fill_c1d2d56c-8a6e-4aad-89f3-25e557d2e5dc)" >
</path>
<g filter="url(#filter_5efdb9b2-2b02-48df-b27e-bca4a1b2e974)">
</g>
<g >
<g filter="url(#filter_0_1)">
<path     fill="#000000"  d="M117.5 261.696C118.46 261.9 119.684 262.32 120.356 262.656L120.728 262.044C120.056 261.732 118.844 261.336 117.884 261.144L117.5 261.696ZM116.3 263.22C117.956 263.424 120.032 263.904 121.184 264.312L121.58 263.64C120.416 263.256 118.34 262.788 116.72 262.608L116.3 263.22ZM114.008 255.492L114.008 266.004L114.872 266.004L114.872 265.5L123.104 265.5L123.104 266.004L124.004 266.004L124.004 255.492L114.008 255.492ZM114.872 264.696L114.872 256.308L123.104 256.308L123.104 264.696L114.872 264.696ZM117.968 256.548C117.368 257.532 116.336 258.468 115.304 259.08C115.496 259.2 115.808 259.476 115.94 259.62C116.3 259.38 116.672 259.092 117.044 258.768C117.404 259.152 117.848 259.512 118.328 259.836C117.308 260.316 116.156 260.676 115.088 260.892C115.244 261.06 115.436 261.408 115.52 261.624C116.696 261.348 117.956 260.904 119.096 260.292C120.092 260.832 121.232 261.24 122.372 261.492C122.48 261.276 122.708 260.964 122.876 260.808C121.82 260.616 120.764 260.292 119.828 259.86C120.728 259.272 121.484 258.588 121.988 257.772L121.472 257.472L121.34 257.508L118.232 257.508C118.412 257.28 118.58 257.052 118.724 256.812L117.968 256.548ZM117.536 258.288L117.62 258.204L120.728 258.204C120.296 258.672 119.72 259.092 119.072 259.464C118.46 259.116 117.932 258.72 117.536 258.288ZM127.16 255.276L127.16 259.272C127.16 261.396 126.992 263.616 125.456 265.32C125.684 265.476 126.008 265.812 126.164 266.028C127.268 264.816 127.76 263.352 127.952 261.84L133.016 261.84L133.016 266.004L133.988 266.004L133.988 260.916L128.048 260.916C128.084 260.364 128.096 259.824 128.096 259.272L128.096 258.996L135.836 258.996L135.836 258.072L132.452 258.072L132.452 254.976L131.504 254.976L131.504 258.072L128.096 258.072L128.096 255.276L127.16 255.276ZM145.112 255.708C145.7 256.224 146.408 256.992 146.732 257.496L147.452 256.968C147.116 256.476 146.384 255.756 145.796 255.252L145.112 255.708ZM139.268 254.964L139.268 257.388L137.552 257.388L137.552 258.228L139.268 258.228L139.268 260.82C138.572 261.012 137.924 261.18 137.408 261.312L137.672 262.188L139.268 261.72L139.268 264.864C139.268 265.032 139.208 265.08 139.04 265.092C138.884 265.092 138.356 265.104 137.804 265.08C137.912 265.308 138.032 265.68 138.068 265.908C138.896 265.908 139.4 265.896 139.712 265.752C140.024 265.608 140.144 265.368 140.144 264.864L140.144 261.456L141.74 260.976L141.632 260.148L140.144 260.58L140.144 258.228L141.608 258.228L141.608 257.388L140.144 257.388L140.144 254.964L139.268 254.964ZM146.948 259.464C146.54 260.376 145.952 261.276 145.232 262.092C144.968 261.204 144.752 260.124 144.596 258.924L148.292 258.528L148.196 257.688L144.5 258.072C144.392 257.112 144.32 256.08 144.284 255L143.372 255C143.42 256.116 143.504 257.172 143.6 258.168L141.752 258.36L141.848 259.212L143.696 259.02C143.876 260.496 144.14 261.792 144.488 262.86C143.576 263.736 142.508 264.444 141.404 264.888C141.644 265.068 141.944 265.344 142.1 265.584C143.06 265.152 143.996 264.516 144.836 263.76C145.424 265.068 146.216 265.86 147.296 265.944C147.908 265.992 148.388 265.38 148.652 263.424C148.46 263.352 148.076 263.124 147.884 262.932C147.776 264.264 147.584 264.912 147.26 264.888C146.576 264.816 146 264.144 145.556 263.04C146.444 262.092 147.188 261.012 147.692 259.908L146.948 259.464ZM155.708 259.308C157.136 260.268 158.936 261.684 159.788 262.608L160.52 261.912C159.62 260.988 157.796 259.644 156.38 258.732L155.708 259.308ZM149.828 255.804L149.828 256.728L155.168 256.728C153.98 258.78 151.916 260.808 149.528 261.984C149.72 262.188 149.996 262.548 150.14 262.776C151.808 261.9 153.296 260.664 154.508 259.272L154.508 265.98L155.48 265.98L155.48 258.036C155.792 257.616 156.068 257.172 156.32 256.728L160.172 256.728L160.172 255.804L149.828 255.804ZM168.692 255.996L168.692 263.268L169.532 263.268L169.532 255.996L168.692 255.996ZM171.068 255.156L171.068 264.6C171.068 264.804 171.008 264.864 170.804 264.864C170.6 264.876 169.94 264.876 169.232 264.852C169.376 265.092 169.52 265.5 169.568 265.752C170.444 265.752 171.08 265.728 171.452 265.572C171.812 265.428 171.944 265.164 171.944 264.6L171.944 255.156L171.068 255.156ZM161.744 264.54L161.948 265.404C163.532 265.092 165.812 264.66 167.948 264.24L167.9 263.448L165.38 263.916L165.38 262.032L167.78 262.032L167.78 261.228L165.38 261.228L165.38 259.944L164.528 259.944L164.528 261.228L162.164 261.228L162.164 262.032L164.528 262.032L164.528 264.06L161.744 264.54ZM162.428 259.776C162.716 259.644 163.16 259.596 166.916 259.236C167.084 259.512 167.228 259.764 167.336 259.98L168.02 259.524C167.672 258.84 166.88 257.748 166.208 256.944L165.548 257.328C165.848 257.688 166.16 258.12 166.448 258.528L163.376 258.792C163.868 258.144 164.36 257.34 164.768 256.548L168.02 256.548L168.02 255.756L161.852 255.756L161.852 256.548L163.76 256.548C163.376 257.4 162.884 258.168 162.704 258.396C162.5 258.684 162.32 258.888 162.128 258.924C162.236 259.164 162.368 259.584 162.428 259.776ZM174.164 255.9L174.164 256.788L181.94 256.788C181.04 257.64 179.72 258.576 178.568 259.152L178.568 264.828C178.568 265.032 178.496 265.104 178.232 265.104C177.956 265.128 177.032 265.128 176.036 265.092C176.18 265.356 176.348 265.74 176.396 266.004C177.62 266.004 178.412 265.992 178.88 265.86C179.36 265.716 179.516 265.44 179.516 264.84L179.516 259.608C181.016 258.792 182.648 257.532 183.716 256.368L183.008 255.852L182.804 255.9L174.164 255.9ZM94.388 277.476C94.052 278.916 93.476 280.344 92.732 281.268C92.948 281.388 93.332 281.628 93.5 281.76C94.232 280.764 94.88 279.24 95.264 277.656L94.388 277.476ZM98.096 277.656C98.756 278.928 99.356 280.62 99.548 281.724L100.412 281.424C100.208 280.32 99.596 278.664 98.912 277.392L98.096 277.656ZM94.592 272.388C94.184 274.152 93.5 275.88 92.6 276.996C92.816 277.128 93.176 277.428 93.332 277.572C93.764 277.008 94.16 276.288 94.508 275.496L96.344 275.496L96.344 282.288C96.344 282.444 96.284 282.48 96.14 282.48C95.972 282.492 95.456 282.504 94.88 282.48C95.012 282.732 95.156 283.128 95.204 283.392C95.948 283.392 96.476 283.356 96.8 283.212C97.124 283.056 97.232 282.792 97.232 282.288L97.232 275.496L99.5 275.496C99.404 276.108 99.296 276.744 99.212 277.188L99.98 277.332C100.136 276.684 100.352 275.64 100.508 274.764L99.896 274.62L99.74 274.656L94.844 274.656C95.096 273.996 95.312 273.3 95.48 272.592L94.592 272.388ZM92.168 272.388C91.496 274.212 90.38 276.012 89.192 277.176C89.36 277.38 89.612 277.848 89.696 278.064C90.116 277.632 90.524 277.128 90.92 276.576L90.92 283.356L91.784 283.356L91.784 275.22C92.252 274.392 92.684 273.516 93.02 272.64L92.168 272.388ZM101.672 273.192L101.672 274.092L109.964 274.092L109.964 282.072C109.964 282.324 109.88 282.396 109.616 282.42C109.328 282.42 108.344 282.432 107.384 282.384C107.528 282.648 107.696 283.092 107.756 283.356C108.944 283.356 109.784 283.356 110.264 283.2C110.732 283.044 110.9 282.732 110.9 282.084L110.9 274.092L112.376 274.092L112.376 273.192L101.672 273.192ZM103.772 276.72L106.928 276.72L106.928 279.48L103.772 279.48L103.772 276.72ZM102.896 275.856L102.896 281.304L103.772 281.304L103.772 280.344L107.816 280.344L107.816 275.856L102.896 275.856ZM117.488 273.876C118.184 274.74 118.964 275.964 119.3 276.744L120.104 276.264C119.744 275.496 118.964 274.332 118.256 273.456L117.488 273.876ZM122.132 272.808C121.868 278.148 121.016 281.136 117.152 282.672C117.368 282.852 117.716 283.26 117.836 283.452C119.468 282.708 120.584 281.748 121.364 280.464C122.324 281.424 123.32 282.576 123.8 283.344L124.592 282.756C124.016 281.904 122.828 280.644 121.796 279.66C122.588 277.944 122.924 275.724 123.092 272.844L122.132 272.808ZM114.692 282.18C114.992 281.904 115.436 281.64 118.916 279.972C118.844 279.78 118.724 279.384 118.676 279.132L115.88 280.44L115.88 273.264L114.92 273.264L114.92 280.344C114.92 280.896 114.452 281.28 114.2 281.436C114.344 281.604 114.608 281.964 114.692 282.18ZM126.74 282.972C127.208 282.78 127.88 282.744 134.42 282.228C134.66 282.6 134.864 282.948 135.008 283.26L135.872 282.792C135.32 281.736 134.156 280.14 133.064 278.952L132.26 279.336C132.812 279.948 133.388 280.692 133.892 281.412L127.94 281.844C128.84 280.848 129.764 279.6 130.556 278.292L136.412 278.292L136.412 277.392L131.468 277.392L131.468 275.124L135.524 275.124L135.524 274.224L131.468 274.224L131.468 272.328L130.52 272.328L130.52 274.224L126.56 274.224L126.56 275.124L130.52 275.124L130.52 277.392L125.636 277.392L125.636 278.292L129.44 278.292C128.672 279.648 127.652 280.944 127.328 281.304C126.968 281.736 126.692 282.012 126.428 282.072C126.548 282.324 126.692 282.78 126.74 282.972ZM143.312 272.484C142.712 274.248 141.74 275.988 140.66 277.116C140.864 277.26 141.212 277.572 141.356 277.728C141.968 277.056 142.556 276.18 143.072 275.208L143.9 275.208L143.9 283.368L144.812 283.368L144.812 280.452L148.424 280.452L148.424 279.6L144.812 279.6L144.812 277.776L148.268 277.776L148.268 276.948L144.812 276.948L144.812 275.208L148.544 275.208L148.544 274.344L143.504 274.344C143.756 273.816 143.984 273.264 144.176 272.712L143.312 272.484ZM140.42 272.388C139.748 274.212 138.62 276.012 137.432 277.176C137.6 277.38 137.864 277.872 137.96 278.076C138.368 277.656 138.764 277.176 139.148 276.648L139.148 283.356L140.048 283.356L140.048 275.232C140.516 274.416 140.948 273.528 141.284 272.652L140.42 272.388ZM152.624 273.708L157.412 273.708L157.412 275.988L152.624 275.988L152.624 273.708ZM151.748 272.856L151.748 276.852L158.336 276.852L158.336 272.856L151.748 272.856ZM149.996 278.136L149.996 283.38L150.86 283.38L150.86 282.732L153.368 282.732L153.368 283.272L154.268 283.272L154.268 278.136L149.996 278.136ZM150.86 281.856L150.86 278.988L153.368 278.988L153.368 281.856L150.86 281.856ZM155.588 278.136L155.588 283.38L156.452 283.38L156.452 282.732L159.188 282.732L159.188 283.308L160.1 283.308L160.1 278.136L155.588 278.136ZM156.452 281.856L156.452 278.988L159.188 278.988L159.188 281.856L156.452 281.856ZM165.488 272.88C166.22 273.42 167.06 274.188 167.54 274.74L162.236 274.74L162.236 275.616L166.508 275.616L166.508 278.256L162.788 278.256L162.788 279.132L166.508 279.132L166.508 282.096L161.672 282.096L161.672 282.972L172.376 282.972L172.376 282.096L167.48 282.096L167.48 279.132L171.272 279.132L171.272 278.256L167.48 278.256L167.48 275.616L171.764 275.616L171.764 274.74L167.864 274.74L168.44 274.32C167.96 273.756 166.988 272.94 166.22 272.388L165.488 272.88ZM178.568 276.876L178.568 279.048C178.568 280.332 178.052 281.76 173.6 282.648C173.792 282.84 174.044 283.188 174.152 283.38C178.82 282.372 179.492 280.704 179.492 279.06L179.492 276.876L178.568 276.876ZM179.54 281.1C180.932 281.748 182.744 282.744 183.62 283.416L184.184 282.696C183.248 282.036 181.436 281.088 180.068 280.488L179.54 281.1ZM175.052 275.28L175.052 280.884L175.976 280.884L175.976 276.12L182.12 276.12L182.12 280.86L183.068 280.86L183.068 275.28L178.736 275.28C178.964 274.86 179.204 274.344 179.42 273.84L184.22 273.84L184.22 273L173.888 273L173.888 273.84L178.388 273.84C178.244 274.308 178.028 274.848 177.836 275.28L175.052 275.28ZM188.54 279.804L193.4 279.804L193.4 280.812L188.54 280.812L188.54 279.804ZM188.54 278.196L193.4 278.196L193.4 279.18L188.54 279.18L188.54 278.196ZM187.652 277.548L187.652 281.46L194.336 281.46L194.336 277.548L187.652 277.548ZM185.888 282.18L185.888 282.996L196.16 282.996L196.16 282.18L185.888 282.18ZM190.52 272.34L190.52 273.864L185.684 273.864L185.684 274.656L189.548 274.656C188.516 275.796 186.908 276.828 185.432 277.332C185.624 277.5 185.888 277.836 186.02 278.052C187.652 277.404 189.428 276.144 190.52 274.716L190.52 277.176L191.408 277.176L191.408 274.704C192.512 276.096 194.312 277.344 195.968 277.956C196.1 277.728 196.364 277.38 196.568 277.212C195.056 276.744 193.424 275.748 192.38 274.656L196.328 274.656L196.328 273.864L191.408 273.864L191.408 272.34L190.52 272.34ZM200.984 279.852L206.216 279.852L206.216 280.692L200.984 280.692L200.984 279.852ZM200.984 279.216L200.984 278.4L206.216 278.4L206.216 279.216L200.984 279.216ZM200.984 281.316L206.216 281.316L206.216 282.204L200.984 282.204L200.984 281.316ZM206.912 272.436C204.992 272.82 201.344 273 198.416 273.024C198.5 273.216 198.584 273.516 198.596 273.72C199.64 273.72 200.768 273.696 201.896 273.648C201.812 273.924 201.728 274.2 201.632 274.476L198.584 274.476L198.584 275.196L201.368 275.196C201.248 275.496 201.116 275.796 200.96 276.096L197.708 276.096L197.708 276.84L200.552 276.84C199.796 278.112 198.764 279.216 197.396 279.996C197.588 280.176 197.852 280.5 197.972 280.704C198.8 280.212 199.508 279.612 200.12 278.928L200.12 283.404L200.984 283.404L200.984 282.924L206.216 282.924L206.216 283.404L207.116 283.404L207.116 277.68L201.08 277.68C201.26 277.404 201.428 277.128 201.584 276.84L208.292 276.84L208.292 276.096L201.956 276.096C202.1 275.796 202.232 275.496 202.352 275.196L207.596 275.196L207.596 274.476L202.616 274.476L202.892 273.6C204.62 273.492 206.276 273.324 207.488 273.084L206.912 272.436Z">
</path>
</g>
</g>
<path d="M232.937 144.848C233.899 130.832 223.754 118.606 210.079 116.843L210.079 116.843C210.708 120.185 211.101 123.601 211.166 127.095C218.514 129.164 223.679 136.213 223.133 144.166C222.507 153.268 214.641 160.161 205.597 159.532C204.661 159.467 203.757 159.306 202.874 159.092C201.141 162.09 199.179 164.922 196.991 167.565C199.464 168.562 202.123 169.202 204.92 169.397C219.37 170.401 231.938 159.391 232.937 144.848Z"   fill="#54C0EB" >
</path>
<path d="M187.884 204.688L123.285 204.688C117.936 204.688 115.448 198.025 119.468 194.504L123.777 190.721L155.585 162.585L187.393 190.721L191.673 194.504C195.692 198.025 193.206 204.688 187.884 204.688L187.884 204.688Z"   fill="url(#linear_fill_065c972e-b2b0-45ed-9ca8-2c2b19b7e6bb)" >
</path>
<path d="M214.128 132.779C214.128 167.157 187.92 195.056 155.564 195.056C123.236 195.056 97.0002 167.157 97.0002 132.779C97.0002 126.754 97.8217 120.969 99.3231 115.487C99.8333 113.648 100.4 111.871 101.051 110.124L210.104 110.124C210.755 111.871 211.323 113.648 211.833 115.487C213.305 120.969 214.128 126.754 214.128 132.779L214.128 132.779Z"   fill="#A0F8E6" >
</path>
<path d="M211.833 115.198L99.323 115.198C99.8332 113.458 100.4 111.777 101.051 110.124L210.103 110.124C210.755 111.777 211.323 113.458 211.833 115.198L211.833 115.198Z"   fill="url(#linear_fill_3f3f3359-0fc0-42c1-9f20-e1fa335781c5)" >
</path>
<path     fill="#FFFFFF"  d="M124.344 144.744L131.191 137.897C133.108 135.98 136.215 135.98 138.132 137.896L145.065 144.829C146.981 146.745 146.982 149.853 145.065 151.769L138.218 158.617C136.302 160.533 133.195 160.533 131.278 158.617L124.345 151.684C122.428 149.768 122.428 146.661 124.344 144.744Z">
</path>
<path     fill="#FFFFFF"  d="M168.271 159.721L175.118 152.874C177.034 150.957 180.142 150.957 182.058 152.874L188.991 159.806C190.908 161.723 190.908 164.83 188.992 166.747L182.145 173.594C180.228 175.51 177.121 175.511 175.205 173.594L168.271 166.661C166.355 164.745 166.355 161.638 168.271 159.721Z">
</path>
<path     fill="#FFFFFF"  d="M140.16 170.198L147.007 163.35C148.923 161.434 152.03 161.433 153.947 163.35L160.88 170.282C162.797 172.199 162.797 175.306 160.881 177.223L154.034 184.07C152.117 185.987 149.01 185.987 147.094 184.07L140.16 177.138C138.244 175.221 138.243 172.114 140.16 170.198Z">
</path>
<defs>
<linearGradient id="linear_fill_7aeba143-53b0-4e20-85d4-69dd26ba4dc3" x1="59.9791259765625" y1="90.9151611328125" x2="108.147216796875" y2="90.9151611328125" gradientUnits="userSpaceOnUse">
<stop offset="0" stop-color="#58BCFF"  />
<stop offset="1" stop-color="#84D0FE"  />
</linearGradient>
<linearGradient id="linear_fill_b26fbf60-82c8-4393-b90a-af3be205023b" x1="222.3599853515625" y1="234.899169921875" x2="238.9580078125" y2="234.899169921875" gradientUnits="userSpaceOnUse">
<stop offset="0" stop-color="#58BCFF"  />
<stop offset="1" stop-color="#84D0FE"  />
</linearGradient>
<linearGradient id="linear_fill_f04b4a5e-29d1-4d1c-8985-6e2c3e018bdc" x1="18.85595703125" y1="175.9012451171875" x2="72.206787109375" y2="175.9012451171875" gradientUnits="userSpaceOnUse">
<stop offset="0" stop-color="#F9D50B"  />
<stop offset="1" stop-color="#F2E27E"  />
</linearGradient>
<linearGradient id="linear_fill_c1d2d56c-8a6e-4aad-89f3-25e557d2e5dc" x1="185.4930419921875" y1="79.108642578125" x2="198.4564208984375" y2="79.108642578125" gradientUnits="userSpaceOnUse">
<stop offset="0" stop-color="#F9D50B"  />
<stop offset="1" stop-color="#F2E27E"  />
</linearGradient>
<filter id="filter_5efdb9b2-2b02-48df-b27e-bca4a1b2e974" x="0" y="0" width="298" height="297.999755859375" filterUnits="userSpaceOnUse" color-interpolation-filters="sRGB">
<feFlood flood-opacity="0" result="feFloodId_5efdb9b2-2b02-48df-b27e-bca4a1b2e974"/>
<feBlend mode="normal" in="SourceGraphic" in2="feFloodId_5efdb9b2-2b02-48df-b27e-bca4a1b2e974" result="shape"/>
<feGaussianBlur result="gaussian_blur_5efdb9b2-2b02-48df-b27e-bca4a1b2e974" stdDeviation="2"/>
</filter>
<filter id="filter_0_1" x="85.1920166015625" y="252.9639892578125" width="123.0999755859375" height="30.488037109375" filterUnits="userSpaceOnUse" color-interpolation-filters="sRGB">
<feFlood flood-opacity="0" result="feFloodId_0_1"/>
<feColorMatrix in="SourceAlpha" type="matrix" values="0 0 0 0 0 0 0 0 0 0 0 0 0 0 0 0 0 0 127 0" result="hardAlpha_0_1"/>
<feOffset dx="0" dy="2"/>
<feGaussianBlur stdDeviation="2"/>
<feComposite in2="hardAlpha_0_1" operator="out"/>
<feColorMatrix type="matrix" values="0 0 0 0 0 0 0 0 0 0 0 0 0 0 0 0 0 0 0.25 0"/>
<feBlend mode="normal" in2="feFloodId_0_1" result="dropShadow_1_0_1"/>
<feBlend mode="normal" in="SourceGraphic" in2="dropShadow_1_0_1" result="shape_0_1"/>
</filter>
<linearGradient id="linear_fill_065c972e-b2b0-45ed-9ca8-2c2b19b7e6bb" x1="117.4814453125" y1="183.63671875" x2="193.6607666015625" y2="183.63671875" gradientUnits="userSpaceOnUse">
<stop offset="0" stop-color="#58BCFF"  />
<stop offset="1" stop-color="#84D0FE"  />
</linearGradient>
<linearGradient id="linear_fill_3f3f3359-0fc0-42c1-9f20-e1fa335781c5" x1="99.3231201171875" y1="112.66064453125" x2="211.832275390625" y2="112.66064453125" gradientUnits="userSpaceOnUse">
<stop offset="0" stop-color="#F9D50B"  />
<stop offset="1" stop-color="#F2E27E"  />
</linearGradient>
</defs>
</svg>
